<mxfile host="app.diagrams.net" modified="2023-04-26T09:39:21.005Z" agent="Mozilla/5.0 (Windows NT 10.0; Win64; x64) AppleWebKit/537.36 (KHTML, like Gecko) Chrome/112.0.0.0 Safari/537.36 Edg/112.0.1722.58" etag="agsPx1r-rirxiQjyuDzf" version="21.1.6" type="device">
  <diagram name="Page-1" id="wzLOTLLVeLTH6vhpFj9p">
    <mxGraphModel dx="580" dy="645" grid="0" gridSize="10" guides="1" tooltips="1" connect="1" arrows="1" fold="1" page="0" pageScale="1" pageWidth="850" pageHeight="1100" math="0" shadow="0">
      <root>
        <mxCell id="0" />
        <mxCell id="1" parent="0" />
        <mxCell id="sxkbkvodVAYbE7M27HJn-1" value="Admin" style="shape=umlActor;verticalLabelPosition=bottom;verticalAlign=top;html=1;outlineConnect=0;fontSize=16;" vertex="1" parent="1">
          <mxGeometry x="21" y="114" width="47" height="93" as="geometry" />
        </mxCell>
        <mxCell id="sxkbkvodVAYbE7M27HJn-2" value="" style="endArrow=classic;html=1;rounded=0;fontSize=12;startSize=8;endSize=8;curved=1;entryX=0.003;entryY=0.68;entryDx=0;entryDy=0;entryPerimeter=0;" edge="1" parent="1" target="sxkbkvodVAYbE7M27HJn-4">
          <mxGeometry width="50" height="50" relative="1" as="geometry">
            <mxPoint x="73" y="161" as="sourcePoint" />
            <mxPoint x="165" y="84" as="targetPoint" />
          </mxGeometry>
        </mxCell>
        <mxCell id="sxkbkvodVAYbE7M27HJn-3" value="" style="endArrow=classic;html=1;rounded=0;fontSize=12;startSize=8;endSize=8;curved=1;" edge="1" parent="1">
          <mxGeometry width="50" height="50" relative="1" as="geometry">
            <mxPoint x="72" y="162" as="sourcePoint" />
            <mxPoint x="173" y="260" as="targetPoint" />
          </mxGeometry>
        </mxCell>
        <mxCell id="sxkbkvodVAYbE7M27HJn-4" value="Login" style="ellipse;whiteSpace=wrap;html=1;fontSize=16;rotation=-15;" vertex="1" parent="1">
          <mxGeometry x="126" y="38" width="96" height="44" as="geometry" />
        </mxCell>
        <mxCell id="sxkbkvodVAYbE7M27HJn-5" value="" style="endArrow=classic;html=1;rounded=0;fontSize=12;startSize=8;endSize=8;curved=1;entryX=0;entryY=0.5;entryDx=0;entryDy=0;" edge="1" parent="1" target="sxkbkvodVAYbE7M27HJn-6">
          <mxGeometry width="50" height="50" relative="1" as="geometry">
            <mxPoint x="72" y="163" as="sourcePoint" />
            <mxPoint x="187" y="147" as="targetPoint" />
          </mxGeometry>
        </mxCell>
        <mxCell id="sxkbkvodVAYbE7M27HJn-6" value="Category&amp;nbsp;&lt;br&gt;Management" style="ellipse;whiteSpace=wrap;html=1;fontSize=16;rotation=0;" vertex="1" parent="1">
          <mxGeometry x="184" y="97" width="121" height="56" as="geometry" />
        </mxCell>
        <mxCell id="sxkbkvodVAYbE7M27HJn-7" value="Comment&amp;nbsp;&lt;br&gt;Management" style="ellipse;whiteSpace=wrap;html=1;fontSize=16;rotation=0;" vertex="1" parent="1">
          <mxGeometry x="126" y="261" width="121" height="56" as="geometry" />
        </mxCell>
        <mxCell id="sxkbkvodVAYbE7M27HJn-8" value="" style="endArrow=classic;html=1;rounded=0;fontSize=12;startSize=8;endSize=8;curved=1;" edge="1" parent="1" target="sxkbkvodVAYbE7M27HJn-9">
          <mxGeometry width="50" height="50" relative="1" as="geometry">
            <mxPoint x="77" y="164" as="sourcePoint" />
            <mxPoint x="256" y="206" as="targetPoint" />
          </mxGeometry>
        </mxCell>
        <mxCell id="sxkbkvodVAYbE7M27HJn-9" value="User&lt;br&gt;Management" style="ellipse;whiteSpace=wrap;html=1;fontSize=16;" vertex="1" parent="1">
          <mxGeometry x="210.13" y="192" width="108.87" height="64" as="geometry" />
        </mxCell>
      </root>
    </mxGraphModel>
  </diagram>
</mxfile>
